#N canvas 246 74 804 693 12;
#X obj 61 76 tgl 15 0 empty empty empty 17 7 0 10 -262144 -1 -1 0 1
;
#X obj 61 99 s play;
#X obj 583 66 dac~;
#X obj 317 59 receive~ fileL;
#X obj 337 23 playfile;
#X obj 102 211 vsl 15 128 0 1 0 0 empty empty empty 0 -9 0 10 -262144
-1 -1 0 1;
#X floatatom 102 350 5 0 0 0 - - -;
#X obj 163 211 vsl 15 128 0 1 0 0 empty empty empty 0 -9 0 10 -262144
-1 -1 0 1;
#X floatatom 163 350 5 0 0 0 - - -;
#X obj 224 211 vsl 15 128 0 1 0 0 empty empty empty 0 -9 0 10 -262144
-1 -1 0 1;
#X floatatom 224 350 5 0 0 0 - - -;
#X obj 286 211 vsl 15 128 0 1 0 0 empty empty empty 0 -9 0 10 -262144
-1 -1 0 1;
#X floatatom 286 350 5 0 0 0 - - -;
#X obj 61 22 key;
#X obj 61 49 select 32;
#X obj 417 269 keyboard;
#X obj 407 313 keyboardtest;
#X obj 421 373 r notes;
#X obj 575 259 vsl 15 128 15 200 0 0 tempo empty empty 0 -9 0 10 -262144
-1 -1 0 1;
#X obj 111 99 s start;
#X obj 576 203 midiclock;
#X obj 594 317 r clock;
#X obj 594 340 bng 50 250 50 0 empty empty empty 17 7 0 10 -262144
-1 -1;
#X floatatom 594 257 5 0 0 0 - tempo -;
#X obj 102 373 s knob1;
#X obj 163 373 s knob2;
#X obj 224 373 s knob3;
#X obj 286 373 s knob4;
#X obj 317 102 send~ toBoard;
#X obj 583 32 receive~ fromBoard;
#X obj 575 231 loadbang;
#X obj 77 532 tremolo;
#X text 22 141 press space to start/stop;
#X text 182 423 knobs;
#X text 425 420 notes;
#X text 573 421 MIDI clock;
#X text 274 142 send dummy audio to pedalboard;
#X text 563 128 receive processed audio;
#X text 202 531 filter / pitch goes here;
#X text 394 607 sample / chop goes here;
#X text 568 528 reverb / freeze goes here;
#X connect 0 0 1 0;
#X connect 0 0 19 0;
#X connect 3 0 28 0;
#X connect 5 0 6 0;
#X connect 6 0 24 0;
#X connect 7 0 8 0;
#X connect 8 0 25 0;
#X connect 9 0 10 0;
#X connect 10 0 26 0;
#X connect 11 0 12 0;
#X connect 12 0 27 0;
#X connect 13 0 14 0;
#X connect 14 0 0 0;
#X connect 21 0 22 0;
#X connect 29 0 2 0;
#X connect 29 0 2 1;
#X connect 30 0 18 0;
