#N canvas 393 23 1194 936 12;
#X obj 10 65 tgl 15 0 empty empty empty 17 7 0 10 -262144 -1 -1 0 1
;
#X obj 10 88 s play;
#X obj 10 910 dac~;
#X obj 11 150 receive~ fileL;
#X obj 1080 9 playfile;
#X obj 160 11 vsl 15 128 0 1 0 0 empty empty empty 0 -9 0 10 -262144
-1 -1 0 1;
#X floatatom 160 150 5 0 0 0 - - -;
#X obj 208 11 vsl 15 128 0 1 0 0 empty empty empty 0 -9 0 10 -262144
-1 -1 0 1;
#X floatatom 208 150 5 0 0 0 - - -;
#X obj 254 11 vsl 15 128 0 1 0 0 empty empty empty 0 -9 0 10 -262144
-1 -1 0 1;
#X floatatom 254 150 5 0 0 0 - - -;
#X obj 301 12 vsl 15 128 0 1 0 0 empty empty empty 0 -9 0 10 -262144
-1 -1 0 1;
#X floatatom 301 151 5 0 0 0 - - -;
#X obj 10 11 key;
#X obj 10 38 select 32;
#X obj 1080 32 keyboard;
#X obj 1080 55 keyboardtest;
#X obj 387 151 r notes;
#X obj 494 39 vsl 15 128 15 200 0 0 empty empty empty 0 -9 0 10 -262144
-1 -1 7400 1;
#X floatatom 513 37 5 0 0 0 - - -;
#X obj 513 59 s tempo;
#X obj 60 88 s start;
#X obj 1080 78 midiclock;
#X obj 513 97 r clock;
#X obj 513 120 bng 50 250 50 0 empty empty empty 17 7 0 10 -262144
-1 -1;
#X connect 0 0 1 0;
#X connect 0 0 21 0;
#X connect 5 0 6 0;
#X connect 7 0 8 0;
#X connect 9 0 10 0;
#X connect 11 0 12 0;
#X connect 13 0 14 0;
#X connect 14 0 0 0;
#X connect 18 0 19 0;
#X connect 19 0 20 0;
#X connect 23 0 24 0;
