#N canvas 211 23 1499 962 12;
#X obj 26 336 key;
#X obj 26 367 select 113;
#X obj 86 540 change;
#X obj 139 468 del 50;
#X msg 101 435 stop;
#X obj 139 336 keyup;
#X obj 139 365 select 113;
#X msg 139 393 60;
#X obj 69 400 t b b;
#X msg 139 496 0;
#X obj 40 585 bng 15 250 50 0 empty empty empty 17 7 0 10 -262144 -1
-1;
#X msg 86 499 100;
#X obj 174 861 r velOut;
#X obj 86 581 s velOut;
#X obj 26 721 s noteOut;
#X obj 98 861 r noteOut;
#X msg 26 398 60;
#X obj 40 620 del 5;
#X obj 15 883 loadbang;
#X msg 15 906 60;
#X obj 15 929 s keyvalIn;
#X obj 213 -63 key;
#X obj 273 141 change;
#X obj 326 69 del 50;
#X msg 288 36 stop;
#X obj 326 -63 keyup;
#X obj 256 1 t b b;
#X msg 326 97 0;
#X obj 227 186 bng 15 250 50 0 empty empty empty 17 7 0 10 -262144
-1 -1;
#X msg 273 100 100;
#X obj 273 182 s velOut;
#X obj 213 322 s noteOut;
#X obj 227 221 del 5;
#X obj 213 -32 select 50;
#X obj 326 -34 select 50;
#X msg 326 -6 61;
#X msg 213 -1 61;
#X floatatom 42 691 5 0 0 0 - - -;
#X floatatom 230 294 5 0 0 0 - - -;
#X obj 26 662 value one;
#X obj 213 263 value two;
#X obj 310 332 key;
#X obj 370 536 change;
#X obj 423 464 del 50;
#X msg 385 431 stop;
#X obj 423 332 keyup;
#X obj 353 396 t b b;
#X msg 423 492 0;
#X obj 324 581 bng 15 250 50 0 empty empty empty 17 7 0 10 -262144
-1 -1;
#X msg 370 495 100;
#X obj 370 577 s velOut;
#X obj 310 717 s noteOut;
#X obj 324 616 del 5;
#X floatatom 327 689 5 0 0 0 - - -;
#X obj 310 363 select 119;
#X msg 310 394 62;
#X msg 423 389 62;
#X obj 423 361 select 119;
#X obj 310 658 value three;
#X obj 541 -67 key;
#X obj 601 137 change;
#X obj 654 65 del 50;
#X msg 616 32 stop;
#X obj 654 -67 keyup;
#X obj 584 -3 t b b;
#X msg 654 93 0;
#X obj 555 182 bng 15 250 50 0 empty empty empty 17 7 0 10 -262144
-1 -1;
#X msg 601 96 100;
#X obj 601 178 s velOut;
#X obj 541 318 s noteOut;
#X obj 555 217 del 5;
#X floatatom 558 290 5 0 0 0 - - -;
#X obj 541 259 value four;
#X obj 541 -36 select 51;
#X obj 654 -38 select 51;
#X msg 654 -10 63;
#X msg 541 -5 63;
#X obj 644 326 key;
#X obj 704 530 change;
#X obj 757 458 del 50;
#X msg 719 425 stop;
#X obj 757 326 keyup;
#X obj 687 390 t b b;
#X msg 757 486 0;
#X obj 658 575 bng 15 250 50 0 empty empty empty 17 7 0 10 -262144
-1 -1;
#X msg 704 489 100;
#X obj 704 571 s velOut;
#X obj 644 711 s noteOut;
#X obj 658 610 del 5;
#X floatatom 661 683 5 0 0 0 - - -;
#X obj 644 652 value five;
#X obj 644 357 select 101;
#X obj 757 355 select 101;
#X msg 757 383 64;
#X msg 644 388 64;
#X obj 1064 332 key;
#X obj 1124 536 change;
#X obj 1177 464 del 50;
#X msg 1139 431 stop;
#X obj 1177 332 keyup;
#X obj 1107 396 t b b;
#X msg 1177 492 0;
#X obj 1078 581 bng 15 250 50 0 empty empty empty 17 7 0 10 -262144
-1 -1;
#X msg 1124 495 100;
#X obj 1124 577 s velOut;
#X obj 1064 717 s noteOut;
#X obj 1078 616 del 5;
#X obj 1251 -67 key;
#X obj 1311 137 change;
#X obj 1364 65 del 50;
#X msg 1326 32 stop;
#X obj 1364 -67 keyup;
#X obj 1294 -3 t b b;
#X msg 1364 93 0;
#X obj 1265 182 bng 15 250 50 0 empty empty empty 17 7 0 10 -262144
-1 -1;
#X msg 1311 96 100;
#X obj 1311 178 s velOut;
#X obj 1251 318 s noteOut;
#X obj 1265 217 del 5;
#X floatatom 1080 687 5 0 0 0 - - -;
#X floatatom 1268 290 5 0 0 0 - - -;
#X obj 1348 328 key;
#X obj 1408 532 change;
#X obj 1461 460 del 50;
#X msg 1423 427 stop;
#X obj 1461 328 keyup;
#X obj 1391 392 t b b;
#X msg 1461 488 0;
#X obj 1362 577 bng 15 250 50 0 empty empty empty 17 7 0 10 -262144
-1 -1;
#X msg 1408 491 100;
#X obj 1408 573 s velOut;
#X obj 1348 713 s noteOut;
#X obj 1362 612 del 5;
#X floatatom 1365 685 5 0 0 0 - - -;
#X obj 1579 -71 key;
#X obj 1639 133 change;
#X obj 1692 61 del 50;
#X msg 1654 28 stop;
#X obj 1692 -71 keyup;
#X obj 1622 -7 t b b;
#X msg 1692 89 0;
#X obj 1593 178 bng 15 250 50 0 empty empty empty 17 7 0 10 -262144
-1 -1;
#X msg 1639 92 100;
#X obj 1639 174 s velOut;
#X obj 1579 314 s noteOut;
#X obj 1593 213 del 5;
#X floatatom 1596 286 5 0 0 0 - - -;
#X obj 1682 322 key;
#X obj 1742 526 change;
#X obj 1795 454 del 50;
#X msg 1757 421 stop;
#X obj 1795 322 keyup;
#X obj 1725 386 t b b;
#X msg 1795 482 0;
#X obj 1696 571 bng 15 250 50 0 empty empty empty 17 7 0 10 -262144
-1 -1;
#X msg 1742 485 100;
#X obj 1742 567 s velOut;
#X obj 1682 707 s noteOut;
#X obj 1696 606 del 5;
#X floatatom 1699 679 5 0 0 0 - - -;
#X obj 1886 -74 key;
#X obj 1946 130 change;
#X obj 1999 58 del 50;
#X msg 1961 25 stop;
#X obj 1999 -74 keyup;
#X obj 1929 -10 t b b;
#X msg 1999 86 0;
#X obj 1900 175 bng 15 250 50 0 empty empty empty 17 7 0 10 -262144
-1 -1;
#X msg 1946 89 100;
#X obj 1946 171 s velOut;
#X obj 1886 311 s noteOut;
#X obj 1900 210 del 5;
#X floatatom 1903 283 5 0 0 0 - - -;
#X obj 1989 319 key;
#X obj 2049 523 change;
#X obj 2102 451 del 50;
#X msg 2064 418 stop;
#X obj 2102 319 keyup;
#X obj 2032 383 t b b;
#X msg 2102 479 0;
#X obj 2003 568 bng 15 250 50 0 empty empty empty 17 7 0 10 -262144
-1 -1;
#X msg 2049 482 100;
#X obj 2049 564 s velOut;
#X obj 1989 704 s noteOut;
#X obj 2003 603 del 5;
#X floatatom 2006 676 5 0 0 0 - - -;
#X obj 2359 325 key;
#X obj 2419 529 change;
#X obj 2472 457 del 50;
#X msg 2434 424 stop;
#X obj 2472 325 keyup;
#X obj 2402 389 t b b;
#X msg 2472 485 0;
#X obj 2373 574 bng 15 250 50 0 empty empty empty 17 7 0 10 -262144
-1 -1;
#X msg 2419 488 100;
#X obj 2419 570 s velOut;
#X obj 2359 710 s noteOut;
#X obj 2373 609 del 5;
#X obj 2546 -74 key;
#X obj 2606 130 change;
#X obj 2659 58 del 50;
#X msg 2621 25 stop;
#X obj 2659 -74 keyup;
#X obj 2589 -10 t b b;
#X msg 2659 86 0;
#X obj 2560 175 bng 15 250 50 0 empty empty empty 17 7 0 10 -262144
-1 -1;
#X msg 2606 89 100;
#X obj 2606 171 s velOut;
#X obj 2546 311 s noteOut;
#X obj 2560 210 del 5;
#X floatatom 2375 680 5 0 0 0 - - -;
#X floatatom 2563 283 5 0 0 0 - - -;
#X obj 2643 321 key;
#X obj 2703 525 change;
#X obj 2756 453 del 50;
#X msg 2718 420 stop;
#X obj 2756 321 keyup;
#X obj 2686 385 t b b;
#X msg 2756 481 0;
#X obj 2657 570 bng 15 250 50 0 empty empty empty 17 7 0 10 -262144
-1 -1;
#X msg 2703 484 100;
#X obj 2703 566 s velOut;
#X obj 2643 706 s noteOut;
#X obj 2657 605 del 5;
#X floatatom 2660 678 5 0 0 0 - - -;
#X obj 2874 -78 key;
#X obj 2934 126 change;
#X obj 2987 54 del 50;
#X msg 2949 21 stop;
#X obj 2987 -78 keyup;
#X obj 2917 -14 t b b;
#X msg 2987 82 0;
#X obj 2888 171 bng 15 250 50 0 empty empty empty 17 7 0 10 -262144
-1 -1;
#X msg 2934 85 100;
#X obj 2934 167 s velOut;
#X obj 2874 307 s noteOut;
#X obj 2888 206 del 5;
#X floatatom 2891 279 5 0 0 0 - - -;
#X obj 2977 315 key;
#X obj 3037 519 change;
#X obj 3090 447 del 50;
#X msg 3052 414 stop;
#X obj 3090 315 keyup;
#X obj 3020 379 t b b;
#X msg 3090 475 0;
#X obj 2991 564 bng 15 250 50 0 empty empty empty 17 7 0 10 -262144
-1 -1;
#X msg 3037 478 100;
#X obj 3037 560 s velOut;
#X obj 2977 700 s noteOut;
#X obj 2991 599 del 5;
#X floatatom 2994 672 5 0 0 0 - - -;
#X obj 3397 321 key;
#X obj 3457 525 change;
#X obj 3510 453 del 50;
#X msg 3472 420 stop;
#X obj 3510 321 keyup;
#X obj 3440 385 t b b;
#X msg 3510 481 0;
#X obj 3411 570 bng 15 250 50 0 empty empty empty 17 7 0 10 -262144
-1 -1;
#X msg 3457 484 100;
#X obj 3457 566 s velOut;
#X obj 3397 706 s noteOut;
#X obj 3411 605 del 5;
#X obj 3584 -78 key;
#X obj 3644 126 change;
#X obj 3697 54 del 50;
#X msg 3659 21 stop;
#X obj 3697 -78 keyup;
#X obj 3627 -14 t b b;
#X msg 3697 82 0;
#X obj 3598 171 bng 15 250 50 0 empty empty empty 17 7 0 10 -262144
-1 -1;
#X msg 3644 85 100;
#X obj 3644 167 s velOut;
#X obj 3584 307 s noteOut;
#X obj 3598 206 del 5;
#X floatatom 3413 676 5 0 0 0 - - -;
#X floatatom 3601 279 5 0 0 0 - - -;
#X obj 3681 317 key;
#X obj 3741 521 change;
#X obj 3794 449 del 50;
#X msg 3756 416 stop;
#X obj 3794 317 keyup;
#X obj 3724 381 t b b;
#X msg 3794 477 0;
#X obj 3695 566 bng 15 250 50 0 empty empty empty 17 7 0 10 -262144
-1 -1;
#X msg 3741 480 100;
#X obj 3741 562 s velOut;
#X obj 3681 702 s noteOut;
#X obj 3695 601 del 5;
#X floatatom 3698 674 5 0 0 0 - - -;
#X obj 3912 -82 key;
#X obj 3972 122 change;
#X obj 4025 50 del 50;
#X msg 3987 17 stop;
#X obj 4025 -82 keyup;
#X obj 3955 -18 t b b;
#X msg 4025 78 0;
#X obj 3926 167 bng 15 250 50 0 empty empty empty 17 7 0 10 -262144
-1 -1;
#X msg 3972 81 100;
#X obj 3972 163 s velOut;
#X obj 3912 303 s noteOut;
#X obj 3926 202 del 5;
#X floatatom 3929 275 5 0 0 0 - - -;
#X obj 4015 311 key;
#X obj 4075 515 change;
#X obj 4128 443 del 50;
#X msg 4090 410 stop;
#X obj 4128 311 keyup;
#X obj 4058 375 t b b;
#X msg 4128 471 0;
#X obj 4029 560 bng 15 250 50 0 empty empty empty 17 7 0 10 -262144
-1 -1;
#X msg 4075 474 100;
#X obj 4075 556 s velOut;
#X obj 4015 696 s noteOut;
#X obj 4029 595 del 5;
#X floatatom 4032 668 5 0 0 0 - - -;
#X obj 4219 -85 key;
#X obj 4279 119 change;
#X obj 4332 47 del 50;
#X msg 4294 14 stop;
#X obj 4332 -85 keyup;
#X obj 4262 -21 t b b;
#X msg 4332 75 0;
#X obj 4233 164 bng 15 250 50 0 empty empty empty 17 7 0 10 -262144
-1 -1;
#X msg 4279 78 100;
#X obj 4279 160 s velOut;
#X obj 4219 300 s noteOut;
#X obj 4233 199 del 5;
#X floatatom 4236 272 5 0 0 0 - - -;
#X obj 4322 308 key;
#X obj 4382 512 change;
#X obj 4435 440 del 50;
#X msg 4397 407 stop;
#X obj 4435 308 keyup;
#X obj 4365 372 t b b;
#X msg 4435 468 0;
#X obj 4336 557 bng 15 250 50 0 empty empty empty 17 7 0 10 -262144
-1 -1;
#X msg 4382 471 100;
#X obj 4382 553 s velOut;
#X obj 4322 693 s noteOut;
#X obj 4336 592 del 5;
#X floatatom 4339 665 5 0 0 0 - - -;
#X obj 4435 337 select 101;
#X obj 1064 658 value six;
#X obj 1251 259 value seven;
#X obj 1348 654 value eight;
#X obj 1579 255 value nine;
#X obj 1682 648 value ten;
#X obj 1886 252 value eleven;
#X obj 1989 645 value twelve;
#X obj 2359 651 value thirteen;
#X obj 2546 252 value fourteen;
#X obj 2643 647 value fifteen;
#X obj 2874 248 value sixteen;
#X obj 2977 641 value seventeen;
#X obj 3397 647 value eighteen;
#X obj 3584 248 value nineteen;
#X obj 3681 643 value twenty;
#X obj 3912 244 value twentyone;
#X obj 4015 637 value twentytwo;
#X obj 4219 241 value twentythree;
#X obj 4322 634 value twentyfour;
#X obj 1064 363 select 114;
#X obj 1177 361 select 114;
#X msg 1177 389 65;
#X msg 1064 394 65;
#X msg 1251 -5 66;
#X msg 1364 -10 66;
#X msg 1348 390 67;
#X msg 1461 385 67;
#X msg 1579 -9 68;
#X msg 1692 -14 68;
#X msg 1682 384 69;
#X msg 1794 379 69;
#X msg 1886 -12 70;
#X msg 1999 -17 70;
#X msg 1989 381 71;
#X msg 2102 376 71;
#X msg 2359 387 72;
#X msg 2472 382 72;
#X msg 2546 -13 73;
#X msg 2659 -17 73;
#X msg 2643 383 74;
#X msg 2756 378 74;
#X msg 2874 -16 75;
#X msg 2987 -21 75;
#X msg 2977 377 76;
#X msg 3090 372 76;
#X msg 3397 383 77;
#X msg 3510 378 77;
#X msg 3584 -16 78;
#X msg 3697 -21 78;
#X msg 3680 379 79;
#X msg 3794 374 79;
#X msg 3912 -20 80;
#X msg 4025 -24 80;
#X msg 4015 373 81;
#X msg 4128 368 81;
#X msg 4219 -23 82;
#X msg 4332 -28 82;
#X msg 4322 370 83;
#X msg 4435 365 83;
#X obj 1251 -36 select 53;
#X obj 1364 -38 select 53;
#X obj 1348 359 select 116;
#X obj 1461 357 select 116;
#X obj 1579 -40 select 54;
#X obj 1692 -42 select 54;
#X obj 1682 353 select 121;
#X obj 1795 351 select 121;
#X obj 1886 -43 select 55;
#X obj 1999 -45 select 55;
#X obj 1989 350 select 117;
#X obj 2102 348 select 117;
#X obj 2359 356 select 122;
#X obj 2472 354 select 122;
#X obj 2546 -43 select 115;
#X obj 2659 -45 select 115;
#X obj 2643 352 select 120;
#X obj 2756 350 select 120;
#X obj 2874 -47 select 100;
#X obj 2987 -49 select 100;
#X obj 2977 346 select 99;
#X obj 3090 344 select 99;
#X obj 3397 352 select 118;
#X obj 3510 350 select 118;
#X obj 3584 -47 select 103;
#X obj 3697 -49 select 103;
#X obj 3681 348 select 98;
#X obj 3794 346 select 98;
#X obj 3912 -51 select 104;
#X obj 4025 -53 select 104;
#X obj 4015 342 select 110;
#X obj 4128 340 select 110;
#X obj 4219 -54 select 106;
#X obj 4332 -56 select 106;
#X obj 4322 339 select 109;
#X floatatom 174 884 5 0 0 0 - - -;
#X floatatom 98 884 5 0 0 0 - - -;
#X obj 98 906 pack 0 0;
#X obj 98 929 send notes;
#X connect 0 0 1 0;
#X connect 1 0 8 0;
#X connect 1 0 11 0;
#X connect 1 0 16 0;
#X connect 2 0 10 0;
#X connect 2 0 13 0;
#X connect 3 0 9 0;
#X connect 4 0 3 0;
#X connect 5 0 6 0;
#X connect 6 0 7 0;
#X connect 7 0 3 0;
#X connect 8 1 4 0;
#X connect 9 0 2 0;
#X connect 10 0 17 0;
#X connect 11 0 2 0;
#X connect 12 0 437 0;
#X connect 15 0 438 0;
#X connect 16 0 39 0;
#X connect 17 0 39 0;
#X connect 18 0 19 0;
#X connect 19 0 20 0;
#X connect 21 0 33 0;
#X connect 22 0 28 0;
#X connect 22 0 30 0;
#X connect 23 0 27 0;
#X connect 24 0 23 0;
#X connect 25 0 34 0;
#X connect 26 1 24 0;
#X connect 27 0 22 0;
#X connect 28 0 32 0;
#X connect 29 0 22 0;
#X connect 32 0 40 0;
#X connect 33 0 26 0;
#X connect 33 0 29 0;
#X connect 33 0 36 0;
#X connect 34 0 35 0;
#X connect 35 0 23 0;
#X connect 36 0 40 0;
#X connect 39 0 14 0;
#X connect 39 0 37 0;
#X connect 40 0 31 0;
#X connect 40 0 38 0;
#X connect 41 0 54 0;
#X connect 42 0 48 0;
#X connect 42 0 50 0;
#X connect 43 0 47 0;
#X connect 44 0 43 0;
#X connect 45 0 57 0;
#X connect 46 1 44 0;
#X connect 47 0 42 0;
#X connect 48 0 52 0;
#X connect 49 0 42 0;
#X connect 52 0 58 0;
#X connect 54 0 46 0;
#X connect 54 0 49 0;
#X connect 54 0 55 0;
#X connect 55 0 58 0;
#X connect 56 0 43 0;
#X connect 57 0 56 0;
#X connect 58 0 51 0;
#X connect 58 0 53 0;
#X connect 59 0 73 0;
#X connect 60 0 66 0;
#X connect 60 0 68 0;
#X connect 61 0 65 0;
#X connect 62 0 61 0;
#X connect 63 0 74 0;
#X connect 64 1 62 0;
#X connect 65 0 60 0;
#X connect 66 0 70 0;
#X connect 67 0 60 0;
#X connect 70 0 72 0;
#X connect 72 0 69 0;
#X connect 72 0 71 0;
#X connect 73 0 64 0;
#X connect 73 0 67 0;
#X connect 73 0 76 0;
#X connect 74 0 75 0;
#X connect 75 0 61 0;
#X connect 76 0 72 0;
#X connect 77 0 91 0;
#X connect 78 0 84 0;
#X connect 78 0 86 0;
#X connect 79 0 83 0;
#X connect 80 0 79 0;
#X connect 81 0 92 0;
#X connect 82 1 80 0;
#X connect 83 0 78 0;
#X connect 84 0 88 0;
#X connect 85 0 78 0;
#X connect 88 0 90 0;
#X connect 90 0 87 0;
#X connect 90 0 89 0;
#X connect 91 0 82 0;
#X connect 91 0 85 0;
#X connect 91 0 94 0;
#X connect 92 0 93 0;
#X connect 93 0 79 0;
#X connect 94 0 90 0;
#X connect 95 0 362 0;
#X connect 96 0 102 0;
#X connect 96 0 104 0;
#X connect 97 0 101 0;
#X connect 98 0 97 0;
#X connect 99 0 363 0;
#X connect 100 1 98 0;
#X connect 101 0 96 0;
#X connect 102 0 106 0;
#X connect 103 0 96 0;
#X connect 106 0 343 0;
#X connect 107 0 402 0;
#X connect 108 0 114 0;
#X connect 108 0 116 0;
#X connect 109 0 113 0;
#X connect 110 0 109 0;
#X connect 111 0 403 0;
#X connect 112 1 110 0;
#X connect 113 0 108 0;
#X connect 114 0 118 0;
#X connect 115 0 108 0;
#X connect 118 0 344 0;
#X connect 121 0 404 0;
#X connect 122 0 128 0;
#X connect 122 0 130 0;
#X connect 123 0 127 0;
#X connect 124 0 123 0;
#X connect 125 0 405 0;
#X connect 126 1 124 0;
#X connect 127 0 122 0;
#X connect 128 0 132 0;
#X connect 129 0 122 0;
#X connect 132 0 345 0;
#X connect 134 0 406 0;
#X connect 135 0 141 0;
#X connect 135 0 143 0;
#X connect 136 0 140 0;
#X connect 137 0 136 0;
#X connect 138 0 407 0;
#X connect 139 1 137 0;
#X connect 140 0 135 0;
#X connect 141 0 145 0;
#X connect 142 0 135 0;
#X connect 145 0 346 0;
#X connect 147 0 408 0;
#X connect 148 0 154 0;
#X connect 148 0 156 0;
#X connect 149 0 153 0;
#X connect 150 0 149 0;
#X connect 151 0 409 0;
#X connect 152 1 150 0;
#X connect 153 0 148 0;
#X connect 154 0 158 0;
#X connect 155 0 148 0;
#X connect 158 0 347 0;
#X connect 160 0 410 0;
#X connect 161 0 167 0;
#X connect 161 0 169 0;
#X connect 162 0 166 0;
#X connect 163 0 162 0;
#X connect 164 0 411 0;
#X connect 165 1 163 0;
#X connect 166 0 161 0;
#X connect 167 0 171 0;
#X connect 168 0 161 0;
#X connect 171 0 348 0;
#X connect 173 0 412 0;
#X connect 174 0 180 0;
#X connect 174 0 182 0;
#X connect 175 0 179 0;
#X connect 176 0 175 0;
#X connect 177 0 413 0;
#X connect 178 1 176 0;
#X connect 179 0 174 0;
#X connect 180 0 184 0;
#X connect 181 0 174 0;
#X connect 184 0 349 0;
#X connect 186 0 414 0;
#X connect 187 0 193 0;
#X connect 187 0 195 0;
#X connect 188 0 192 0;
#X connect 189 0 188 0;
#X connect 190 0 415 0;
#X connect 191 1 189 0;
#X connect 192 0 187 0;
#X connect 193 0 197 0;
#X connect 194 0 187 0;
#X connect 197 0 350 0;
#X connect 198 0 416 0;
#X connect 199 0 205 0;
#X connect 199 0 207 0;
#X connect 200 0 204 0;
#X connect 201 0 200 0;
#X connect 202 0 417 0;
#X connect 203 1 201 0;
#X connect 204 0 199 0;
#X connect 205 0 209 0;
#X connect 206 0 199 0;
#X connect 209 0 351 0;
#X connect 212 0 418 0;
#X connect 213 0 219 0;
#X connect 213 0 221 0;
#X connect 214 0 218 0;
#X connect 215 0 214 0;
#X connect 216 0 419 0;
#X connect 217 1 215 0;
#X connect 218 0 213 0;
#X connect 219 0 223 0;
#X connect 220 0 213 0;
#X connect 223 0 352 0;
#X connect 225 0 420 0;
#X connect 226 0 232 0;
#X connect 226 0 234 0;
#X connect 227 0 231 0;
#X connect 228 0 227 0;
#X connect 229 0 421 0;
#X connect 230 1 228 0;
#X connect 231 0 226 0;
#X connect 232 0 236 0;
#X connect 233 0 226 0;
#X connect 236 0 353 0;
#X connect 238 0 422 0;
#X connect 239 0 245 0;
#X connect 239 0 247 0;
#X connect 240 0 244 0;
#X connect 241 0 240 0;
#X connect 242 0 423 0;
#X connect 243 1 241 0;
#X connect 244 0 239 0;
#X connect 245 0 249 0;
#X connect 246 0 239 0;
#X connect 249 0 354 0;
#X connect 251 0 424 0;
#X connect 252 0 258 0;
#X connect 252 0 260 0;
#X connect 253 0 257 0;
#X connect 254 0 253 0;
#X connect 255 0 425 0;
#X connect 256 1 254 0;
#X connect 257 0 252 0;
#X connect 258 0 262 0;
#X connect 259 0 252 0;
#X connect 262 0 355 0;
#X connect 263 0 426 0;
#X connect 264 0 270 0;
#X connect 264 0 272 0;
#X connect 265 0 269 0;
#X connect 266 0 265 0;
#X connect 267 0 427 0;
#X connect 268 1 266 0;
#X connect 269 0 264 0;
#X connect 270 0 274 0;
#X connect 271 0 264 0;
#X connect 274 0 356 0;
#X connect 277 0 428 0;
#X connect 278 0 284 0;
#X connect 278 0 286 0;
#X connect 279 0 283 0;
#X connect 280 0 279 0;
#X connect 281 0 429 0;
#X connect 282 1 280 0;
#X connect 283 0 278 0;
#X connect 284 0 288 0;
#X connect 285 0 278 0;
#X connect 288 0 357 0;
#X connect 290 0 430 0;
#X connect 291 0 297 0;
#X connect 291 0 299 0;
#X connect 292 0 296 0;
#X connect 293 0 292 0;
#X connect 294 0 431 0;
#X connect 295 1 293 0;
#X connect 296 0 291 0;
#X connect 297 0 301 0;
#X connect 298 0 291 0;
#X connect 301 0 358 0;
#X connect 303 0 432 0;
#X connect 304 0 310 0;
#X connect 304 0 312 0;
#X connect 305 0 309 0;
#X connect 306 0 305 0;
#X connect 307 0 433 0;
#X connect 308 1 306 0;
#X connect 309 0 304 0;
#X connect 310 0 314 0;
#X connect 311 0 304 0;
#X connect 314 0 359 0;
#X connect 316 0 434 0;
#X connect 317 0 323 0;
#X connect 317 0 325 0;
#X connect 318 0 322 0;
#X connect 319 0 318 0;
#X connect 320 0 435 0;
#X connect 321 1 319 0;
#X connect 322 0 317 0;
#X connect 323 0 327 0;
#X connect 324 0 317 0;
#X connect 327 0 360 0;
#X connect 329 0 436 0;
#X connect 330 0 336 0;
#X connect 330 0 338 0;
#X connect 331 0 335 0;
#X connect 332 0 331 0;
#X connect 333 0 342 0;
#X connect 334 1 332 0;
#X connect 335 0 330 0;
#X connect 336 0 340 0;
#X connect 337 0 330 0;
#X connect 340 0 361 0;
#X connect 342 0 401 0;
#X connect 343 0 105 0;
#X connect 343 0 119 0;
#X connect 344 0 117 0;
#X connect 344 0 120 0;
#X connect 345 0 131 0;
#X connect 345 0 133 0;
#X connect 346 0 144 0;
#X connect 346 0 146 0;
#X connect 347 0 157 0;
#X connect 347 0 159 0;
#X connect 348 0 170 0;
#X connect 348 0 172 0;
#X connect 349 0 183 0;
#X connect 349 0 185 0;
#X connect 350 0 196 0;
#X connect 350 0 210 0;
#X connect 351 0 208 0;
#X connect 351 0 211 0;
#X connect 352 0 222 0;
#X connect 352 0 224 0;
#X connect 353 0 235 0;
#X connect 353 0 237 0;
#X connect 354 0 248 0;
#X connect 354 0 250 0;
#X connect 355 0 261 0;
#X connect 355 0 275 0;
#X connect 356 0 273 0;
#X connect 356 0 276 0;
#X connect 357 0 287 0;
#X connect 357 0 289 0;
#X connect 358 0 300 0;
#X connect 358 0 302 0;
#X connect 359 0 313 0;
#X connect 359 0 315 0;
#X connect 360 0 326 0;
#X connect 360 0 328 0;
#X connect 361 0 339 0;
#X connect 361 0 341 0;
#X connect 362 0 100 0;
#X connect 362 0 103 0;
#X connect 362 0 365 0;
#X connect 363 0 364 0;
#X connect 364 0 97 0;
#X connect 365 0 343 0;
#X connect 366 0 344 0;
#X connect 367 0 109 0;
#X connect 368 0 345 0;
#X connect 369 0 123 0;
#X connect 370 0 346 0;
#X connect 371 0 136 0;
#X connect 372 0 347 0;
#X connect 373 0 149 0;
#X connect 374 0 348 0;
#X connect 375 0 162 0;
#X connect 376 0 349 0;
#X connect 377 0 175 0;
#X connect 378 0 350 0;
#X connect 379 0 188 0;
#X connect 380 0 351 0;
#X connect 381 0 200 0;
#X connect 382 0 352 0;
#X connect 383 0 214 0;
#X connect 384 0 353 0;
#X connect 385 0 227 0;
#X connect 386 0 354 0;
#X connect 387 0 240 0;
#X connect 388 0 355 0;
#X connect 389 0 253 0;
#X connect 390 0 356 0;
#X connect 391 0 265 0;
#X connect 392 0 357 0;
#X connect 393 0 279 0;
#X connect 394 0 358 0;
#X connect 395 0 292 0;
#X connect 396 0 359 0;
#X connect 397 0 305 0;
#X connect 398 0 360 0;
#X connect 399 0 318 0;
#X connect 400 0 361 0;
#X connect 401 0 331 0;
#X connect 402 0 112 0;
#X connect 402 0 115 0;
#X connect 402 0 366 0;
#X connect 403 0 367 0;
#X connect 404 0 126 0;
#X connect 404 0 129 0;
#X connect 404 0 368 0;
#X connect 405 0 369 0;
#X connect 406 0 139 0;
#X connect 406 0 142 0;
#X connect 406 0 370 0;
#X connect 407 0 371 0;
#X connect 408 0 152 0;
#X connect 408 0 155 0;
#X connect 408 0 372 0;
#X connect 409 0 373 0;
#X connect 410 0 165 0;
#X connect 410 0 168 0;
#X connect 410 0 374 0;
#X connect 411 0 375 0;
#X connect 412 0 178 0;
#X connect 412 0 181 0;
#X connect 412 0 376 0;
#X connect 413 0 377 0;
#X connect 414 0 191 0;
#X connect 414 0 194 0;
#X connect 414 0 378 0;
#X connect 415 0 379 0;
#X connect 416 0 203 0;
#X connect 416 0 206 0;
#X connect 416 0 380 0;
#X connect 417 0 381 0;
#X connect 418 0 217 0;
#X connect 418 0 220 0;
#X connect 418 0 382 0;
#X connect 419 0 383 0;
#X connect 420 0 230 0;
#X connect 420 0 233 0;
#X connect 420 0 384 0;
#X connect 421 0 385 0;
#X connect 422 0 243 0;
#X connect 422 0 246 0;
#X connect 422 0 386 0;
#X connect 423 0 387 0;
#X connect 424 0 256 0;
#X connect 424 0 259 0;
#X connect 424 0 388 0;
#X connect 425 0 389 0;
#X connect 426 0 268 0;
#X connect 426 0 271 0;
#X connect 426 0 390 0;
#X connect 427 0 391 0;
#X connect 428 0 282 0;
#X connect 428 0 285 0;
#X connect 428 0 392 0;
#X connect 429 0 393 0;
#X connect 430 0 295 0;
#X connect 430 0 298 0;
#X connect 430 0 394 0;
#X connect 431 0 395 0;
#X connect 432 0 308 0;
#X connect 432 0 311 0;
#X connect 432 0 396 0;
#X connect 433 0 397 0;
#X connect 434 0 321 0;
#X connect 434 0 324 0;
#X connect 434 0 398 0;
#X connect 435 0 399 0;
#X connect 436 0 334 0;
#X connect 436 0 337 0;
#X connect 436 0 400 0;
#X connect 437 0 439 1;
#X connect 438 0 439 0;
#X connect 439 0 440 0;
