#N canvas 1309 56 390 628 12;
#X obj 73 197 mtof;
#X floatatom 73 219 5 0 0 0 - - - 0;
#X obj 73 263 osc~;
#X obj 73 288 *~;
#X obj 145 176 sel 0;
#X floatatom 73 176 5 0 0 0 - - - 0;
#X floatatom 177 198 5 0 0 0 - - - 0;
#X obj 177 219 / 127;
#X msg 177 241 \$1 10;
#X obj 177 263 line~;
#X obj 64 337 dac~;
#X obj 127 338 print note;
#X obj 218 337 print velocity;
#X obj 95 91 r notes;
#X obj 95 115 unpack;
#X connect 0 0 1 0;
#X connect 1 0 2 0;
#X connect 2 0 3 0;
#X connect 4 1 6 0;
#X connect 5 0 0 0;
#X connect 6 0 7 0;
#X connect 7 0 8 0;
#X connect 8 0 9 0;
#X connect 9 0 3 1;
#X connect 13 0 14 0;
#X connect 14 0 5 0;
#X connect 14 1 4 0;
