#N canvas 1267 75 413 626 12;
#X obj 33 47 r notes;
#X obj 33 132 tgl 15 0 empty empty bypass 17 7 0 10 -262144 -1 -1 1
1;
#X obj 33 152 t f f, f 15;
#X obj 33 175 != 1;
#X obj 112 104 loadbang;
#X obj 33 75 stripnote;
#X obj 33 104 select \$1;
#X obj 137 20 inlet;
#X obj 33 233 outlet;
#X obj 135 231 outlet;
#X obj 33 210 tgl 15 0 empty empty empty 17 7 0 10 -262144 -1 -1 0
1;
#X obj 135 209 tgl 15 0 empty empty empty 17 7 0 10 -262144 -1 -1 1
1;
#X obj 194 71 print;
#X connect 0 0 5 0;
#X connect 0 0 12 0;
#X connect 1 0 2 0;
#X connect 2 0 3 0;
#X connect 2 1 11 0;
#X connect 3 0 10 0;
#X connect 4 0 1 0;
#X connect 5 0 6 0;
#X connect 6 0 1 0;
#X connect 7 0 6 1;
#X connect 10 0 8 0;
#X connect 11 0 9 0;
