#N canvas 89 43 1457 886 12;
#X obj 91 32 tgl 15 0 empty empty empty 17 7 0 10 -262144 -1 -1 0 1
;
#X obj 91 55 s play;
#X obj 1286 59 dac~;
#X obj 716 60 receive~ fileL;
#X obj 736 24 playfile;
#X obj 45 333 vsl 15 128 0 1 0 0 empty empty empty 0 -9 0 10 -262144
-1 -1 0 1;
#X floatatom 45 472 5 0 0 0 - - -;
#X obj 899 374 keyboard;
#X obj 889 418 keyboardtest;
#X obj 903 478 r notes;
#X obj 1287 420 vsl 15 128 15 200 0 0 tempo empty empty 0 -9 0 10 -262144
-1 -1 3089 1;
#X obj 141 55 s start;
#X obj 1288 333 midiclock;
#X obj 1306 478 r clock;
#X obj 1306 501 bng 50 250 50 0 empty empty empty 17 7 0 10 -262144
-1 -1;
#X floatatom 1306 418 5 0 0 0 - tempo -;
#X obj 716 103 send~ toBoard;
#X obj 1286 25 receive~ fromBoard;
#X obj 1287 361 loadbang;
#X obj 933 845 tremolo;
#X text 52 97 press space to start/stop;
#X text 137 711 knobs;
#X text 907 525 notes;
#X text 1285 582 MIDI clock;
#X text 673 143 send dummy audio to pedalboard;
#X text 1266 121 receive processed audio;
#X text 437 844 filter / pitch goes here;
#X text 19 838 sample / chop goes here;
#X text 1256 851 reverb / freeze goes here;
#X msg 1287 385 60;
#X obj 45 305 r knob1;
#X obj 113 409 vsl 15 128 0 1 0 0 empty empty empty 0 -9 0 10 -262144
-1 -1 0 1;
#X floatatom 113 548 5 0 0 0 - - -;
#X obj 169 487 vsl 15 128 0 1 0 0 empty empty empty 0 -9 0 10 -262144
-1 -1 0 1;
#X floatatom 169 626 5 0 0 0 - - -;
#X obj 232 566 vsl 15 128 0 1 0 0 empty empty empty 0 -9 0 10 -262144
-1 -1 0 1;
#X floatatom 232 705 5 0 0 0 - - -;
#X obj 232 538 r knob1;
#X obj 113 381 r knob2;
#X obj 169 459 r knob3;
#X msg 191 486 \; screenLine3 Knob3 \$1;
#X msg 135 408 \; screenLine2 Knob2 \$1;
#X msg 67 332 \; screenLine1 Knob1 \$1;
#X msg 254 565 \; screenLine4 Knob4 \$1;
#X connect 0 0 1 0;
#X connect 0 0 11 0;
#X connect 3 0 16 0;
#X connect 5 0 6 0;
#X connect 13 0 14 0;
#X connect 17 0 2 0;
#X connect 17 0 2 1;
#X connect 18 0 29 0;
#X connect 29 0 10 0;
#X connect 30 0 42 0;
#X connect 30 0 5 0;
#X connect 31 0 32 0;
#X connect 33 0 34 0;
#X connect 35 0 36 0;
#X connect 37 0 43 0;
#X connect 37 0 35 0;
#X connect 38 0 41 0;
#X connect 38 0 31 0;
#X connect 39 0 40 0;
#X connect 39 0 33 0;
