#N canvas 683 303 584 413 10;
#X obj 215 125 tgl 15 0 empty empty empty 17 7 0 10 -262144 -1 -1 1
1;
#X obj 215 249 midiout;
#X obj 106 152 select 0 1;
#X msg 106 186 252;
#X msg 143 186 250;
#X msg 215 179 248;
#X floatatom 272 80 5 0 0 0 - - -;
#X obj 215 100 r start;
#X obj 272 60 r tempo;
#X obj 279 213 s clock;
#X obj 316 186 bng 15 250 50 0 empty empty empty 17 7 0 10 -262144
-1 -1;
#X msg 272 100 tempo \$1 permin;
#X obj 215 149 metro 1 120 permin;
#X obj 393 125 /;
#X msg 393 100 1 \$1;
#X msg 393 69 0.5;
#X msg 429 69 1;
#X msg 465 69 4;
#X text 424 126 beat length;
#X connect 0 0 2 0;
#X connect 0 0 12 0;
#X connect 2 0 3 0;
#X connect 2 1 4 0;
#X connect 3 0 1 0;
#X connect 4 0 1 0;
#X connect 5 0 1 0;
#X connect 6 0 11 0;
#X connect 7 0 0 0;
#X connect 8 0 6 0;
#X connect 11 0 12 0;
#X connect 12 0 5 0;
#X connect 12 0 9 0;
#X connect 12 0 10 0;
#X connect 13 0 12 1;
#X connect 14 0 13 0;
#X connect 15 0 14 0;
#X connect 16 0 14 0;
#X connect 17 0 14 0;
