#N canvas 606 146 950 722 10;
#X obj 84 56 tgl 15 0 empty empty empty 17 7 0 10 -262144 -1 -1 0 1
;
#X obj 19 663 midiout;
#X obj 84 306 select 0 1;
#X msg 84 340 252;
#X msg 121 340 250;
#X msg 307 339 248;
#X floatatom 215 56 5 0 0 0 - - -;
#X obj 84 36 r start;
#X obj 215 36 r tempo;
#X obj 339 339 s clock;
#X obj 392 339 bng 15 250 50 0 empty empty empty 17 7 0 10 -262144
-1 -1;
#X msg 215 76 tempo \$1 permin;
#X obj 307 309 metro 1 120 permin;
#X obj 412 282 /;
#X msg 412 257 1 \$1;
#X msg 412 226 0.5;
#X msg 448 226 1;
#X msg 484 226 4;
#X text 443 283 beat length;
#X obj 848 666 s midiout-dev;
#X text 94 267 start/stop;
#X text 53 11 listen for space bar;
#X text 222 11 listen for tempo;
#X text 10 694 send to MIDI;
#X text 837 695 send to MIDI dev;
#X text 332 269 beats;
#X obj 690 345 bng 15 250 50 0 empty empty empty 17 7 0 10 -262144
-1 -1;
#X obj 605 315 metro 1 120 permin;
#X obj 710 288 /;
#X msg 710 263 1 \$1;
#X text 741 289 beat length;
#X msg 710 232 24;
#X obj 710 204 loadbang;
#X msg 605 345 248;
#X text 603 169 raw MIDI for dev purposes;
#X connect 0 0 2 0;
#X connect 0 0 12 0;
#X connect 0 0 27 0;
#X connect 2 0 3 0;
#X connect 2 1 4 0;
#X connect 3 0 1 0;
#X connect 3 0 19 0;
#X connect 4 0 1 0;
#X connect 4 0 19 0;
#X connect 5 0 1 0;
#X connect 6 0 11 0;
#X connect 7 0 0 0;
#X connect 8 0 6 0;
#X connect 11 0 12 0;
#X connect 11 0 27 0;
#X connect 12 0 9 0;
#X connect 12 0 10 0;
#X connect 12 0 5 0;
#X connect 13 0 12 1;
#X connect 14 0 13 0;
#X connect 15 0 14 0;
#X connect 16 0 14 0;
#X connect 17 0 14 0;
#X connect 27 0 26 0;
#X connect 27 0 33 0;
#X connect 28 0 27 1;
#X connect 29 0 28 0;
#X connect 31 0 29 0;
#X connect 32 0 31 0;
#X connect 33 0 19 0;
