#N canvas 678 37 787 648 12;
#X msg 385 177 start;
#X msg 500 150 stop;
#X obj 372 245 readsf~ 2;
#X obj 319 48 route 1 0;
#X msg 256 177 open three.aiff;
#X obj 318 118 bng 15 250 50 0 empty empty empty 17 7 0 10 -262144
-1 -1;
#X obj 319 15 r play;
#X obj 308 306 send~ fileL;
#X obj 413 307 send~ fileR;
#X obj 172 149 tgl 15 0 empty empty empty 17 7 0 10 -262144 -1 -1 0
1;
#X msg 172 177 \; pd dsp \$1;
#X obj 256 148 delay 1 1 msec;
#X obj 384 150 delay 2 1 msec;
#X connect 0 0 2 0;
#X connect 1 0 2 0;
#X connect 2 0 7 0;
#X connect 2 1 8 0;
#X connect 2 2 5 0;
#X connect 3 0 5 0;
#X connect 3 0 9 0;
#X connect 3 1 1 0;
#X connect 3 1 9 0;
#X connect 4 0 2 0;
#X connect 5 0 12 0;
#X connect 5 0 11 0;
#X connect 6 0 3 0;
#X connect 9 0 10 0;
#X connect 11 0 4 0;
#X connect 12 0 0 0;
