#N canvas 236 23 1237 962 12;
#X obj 1064 100 r notes;
#X obj 1064 185 tgl 15 0 empty empty bypass 17 7 0 10 -262144 -1 -1
0 1;
#X obj 1064 205 t f f, f 15;
#X obj 1064 256 tgl 15 0 empty empty empty 17 7 0 10 -262144 -1 -1
1 1;
#X obj 1151 252 tgl 15 0 empty empty empty 17 7 0 10 -262144 -1 -1
0 1;
#X obj 1064 228 != 1;
#X obj 1045 353 *~;
#X obj 1135 352 *~;
#X obj 1135 449 *~ 1;
#X msg 1151 271 \$1 10;
#X msg 1064 276 \$1 10;
#X obj 1151 294 line~;
#X obj 1064 300 line~;
#X obj 1143 157 loadbang;
#X obj 1064 128 stripnote;
#X obj 922 301 receive~ toBoard;
#X obj 929 489 send~ fromBoard;
#X obj 438 183 r knob1;
#X obj 356 327 * 1000;
#X obj 336 381 vcf~ 1;
#X obj 355 351 sig~;
#X obj 936 385 send~ tremSend;
#X obj 894 413 receive~ tremReceive;
#X obj 1064 157 select \$1;
#X msg 977 96 60;
#X obj 977 72 loadbang;
#X text 1001 22 elaborate toggle switch;
#X obj 288 28 receive~ tremSend;
#X obj 282 928 send~ tremReceive;
#X connect 0 0 14 0;
#X connect 1 0 2 0;
#X connect 2 0 5 0;
#X connect 2 1 4 0;
#X connect 3 0 10 0;
#X connect 4 0 9 0;
#X connect 5 0 3 0;
#X connect 6 0 21 0;
#X connect 7 0 8 0;
#X connect 8 0 16 0;
#X connect 9 0 11 0;
#X connect 10 0 12 0;
#X connect 11 0 7 1;
#X connect 12 0 6 1;
#X connect 13 0 1 0;
#X connect 14 0 23 0;
#X connect 15 0 6 0;
#X connect 15 0 7 0;
#X connect 17 0 18 0;
#X connect 18 0 20 0;
#X connect 19 0 28 0;
#X connect 20 0 19 1;
#X connect 22 0 8 0;
#X connect 23 0 1 0;
#X connect 24 0 23 1;
#X connect 25 0 24 0;
#X connect 27 0 19 0;
