#N canvas 14 23 1656 962 12;
#X obj 1500 206 *~;
#X obj 1565 206 *~;
#X obj 1565 303 *~ 1;
#X msg 1583 129 \$1 10;
#X msg 1519 129 \$1 10;
#X obj 1583 153 line~;
#X obj 1519 153 line~;
#X obj 1377 154 receive~ toBoard;
#X obj 1384 342 send~ fromBoard;
#X obj 1391 238 send~ tremSend;
#X obj 1349 266 receive~ tremReceive;
#X msg 1519 71 60;
#X obj 1519 47 loadbang;
#X text 1470 12 elaborate toggle switch;
#X obj 10 10 receive~ tremSend;
#X obj 12 933 send~ tremReceive;
#X floatatom 503 528 5 0 0 0 - - -;
#X obj 503 554 osc~;
#X obj 12 906 *~;
#X floatatom 278 528 5 0 0 0 - - -;
#X obj 504 503 rh_scalelog 0.5 8000;
#X obj 175 750 tabwrite~ pulse;
#X obj 175 695 tgl 15 0 empty empty empty 17 7 0 10 -262144 -1 -1 1
1;
#X text 202 692 graph trem wave;
#X obj 175 666 loadbang;
#N canvas 0 22 450 278 (subpatch) 0;
#X array pulse 100 float 1;
#A 0 0 0 0 0 0 0 0 0 0 0 0 0 0 0 0 0 0 0 0 0 0 0 0 0 0 0 0 0 0 0 0
0 0 0 0 0 0 0 0 0 0 0 0 0 0 0 0 0 0 0 0 0 0 0 0 0 0 0 0 0 0 0 0 0 0
0 0 0 0 0 0 0 0 0 0 0 0 0 0 0 0 0 0 0 0 0 0 0 0 0 0 0 0 0 0 0 0 0 0
0;
#X coords 0 1 99 -1 300 150 1 0 0;
#X restore 175 789 graph;
#X obj 263 552 phasor~;
#X obj 279 609 expr~ $v1 > $v2;
#X floatatom 381 554 5 0 0 0 - - -;
#X obj 381 579 / 100;
#X obj 171 503 rh_scalelog 0.5 8000;
#X text 544 448 sine wave;
#X text 220 437 square wave;
#X obj 503 579 +~ 1;
#X obj 503 605 *~ 0.5;
#X obj 151 640 expr~ (1.0 - $v1) * $v2 + ($v1 * $v3);
#X msg 381 528 50;
#X obj 381 503 loadbang;
#X obj 1477 436 loadbang;
#X obj 1519 95 keypress;
#X msg 1477 460 61;
#X obj 1477 508 tgl 15 0 empty empty empty 17 7 0 10 -262144 -1 -1
0 1;
#X obj 1523 508 tgl 15 0 empty empty empty 17 7 0 10 -262144 -1 -1
1 1;
#X obj 1477 484 keyhold;
#X obj 811 69 r knob3;
#X floatatom 811 150 5 0 0 0 - - -;
#X floatatom 861 150 5 0 0 0 - - -;
#X obj 811 126 spigot;
#X obj 861 126 spigot;
#X obj 1477 531 send trem-ShiftOn;
#X obj 1477 558 send trem-ShiftOff;
#X text 1475 405 shift key logic;
#X obj 878 96 r trem-ShiftOn;
#X obj 871 69 r trem-ShiftOff;
#X floatatom 156 152 5 0 0 0 - - -;
#X floatatom 206 152 5 0 0 0 - - -;
#X obj 156 128 spigot;
#X obj 206 128 spigot;
#X obj 223 98 r trem-ShiftOn;
#X obj 216 71 r trem-ShiftOff;
#X obj 156 71 r knob1;
#X text 218 16 knob1;
#X floatatom 474 147 5 0 0 0 - - -;
#X floatatom 524 147 5 0 0 0 - - -;
#X obj 474 123 spigot;
#X obj 524 123 spigot;
#X obj 541 93 r trem-ShiftOn;
#X obj 534 66 r trem-ShiftOff;
#X obj 474 66 r knob2;
#X text 467 36 pulse shape / pulse width;
#X text 546 15 knob2;
#X text 879 15 knob3;
#X text 726 36 humanize / alt voice intensity (vol / filter);
#X floatatom 1149 147 5 0 0 0 - - -;
#X floatatom 1199 147 5 0 0 0 - - -;
#X obj 1149 123 spigot;
#X obj 1199 123 spigot;
#X obj 1216 93 r trem-ShiftOn;
#X obj 1209 66 r trem-ShiftOff;
#X text 1238 14 knob4;
#X text 1096 36 ramp trem rate (ms) / ramp trem tempo (note);
#X text 149 36 rate (ms) / tempo (note);
#X obj 175 720 metro 200;
#X obj 332 503 * 100;
#X text 891 374 next to do:;
#X text 895 402 properly mix sine and square waves;
#X text 892 441 get pulse width going on the sine wave;
#X obj 1149 66 r knob4;
#X obj 554 173 s trem-pulseWidth;
#X obj 396 173 s trem-pulseShape;
#X obj 332 477 r trem-pulseWidth;
#X obj 171 477 r trem-pulseTempo;
#X obj 504 477 r trem-pulseTempo;
#X obj 151 609 r trem-pulseShape;
#X obj 206 178 s trem-pulseTempo;
#X obj 77 178 s trem-pulseRate;
#X obj 51 477 r trem-pulseRate;
#X obj 839 669 r trem-pulseTempo;
#X obj 1365 670 r clock;
#X obj 1365 695 bng 15 250 50 0 empty empty empty 17 7 0 10 -262144
-1 -1;
#X obj 839 693 * 100;
#X obj 839 717 / 14.3;
#X obj 839 741 int;
#X floatatom 839 765 5 0 0 0 - - -;
#X floatatom 947 948 5 0 0 0 - - -;
#X obj 947 912 r tempo;
#X obj 839 821 sel 0 1 2 3 4 5 6;
#X obj 839 791 change;
#X obj 1120 669 r midiout-dev;
#X text 838 630 working on getting trem-puleTempo firing;
#X obj 1120 701 == 248;
#X obj 1156 809 + 1;
#X obj 1120 809 f;
#X obj 1152 758 del 500;
#X msg 1152 781 0;
#X obj 1120 731 t b b;
#X text 1182 778 < resets counter to 0;
#X obj 1120 862 sel 0;
#X obj 1120 836 mod 24;
#X obj 1120 888 bng 15 250 50 0 empty empty empty 17 7 0 10 -262144
-1 -1;
#X floatatom 911 1003 5 0 0 0 - - -;
#X msg 734 850 1;
#X msg 767 850 2;
#X obj 868 912 t b f;
#X msg 800 850 4;
#X msg 833 850 8;
#X msg 866 850 16;
#X msg 899 850 32;
#X msg 933 850 64;
#X obj 911 979 *;
#X text 957 1003 <-- bpm for the note divisions;
#X text 1191 888 <-- turns MIDIin into a bpm bang;
#X connect 0 0 9 0;
#X connect 1 0 2 0;
#X connect 2 0 8 0;
#X connect 3 0 5 0;
#X connect 4 0 6 0;
#X connect 5 0 1 1;
#X connect 6 0 0 1;
#X connect 7 0 0 0;
#X connect 7 0 1 0;
#X connect 10 0 2 0;
#X connect 11 0 39 0;
#X connect 12 0 11 0;
#X connect 14 0 18 0;
#X connect 16 0 17 0;
#X connect 17 0 33 0;
#X connect 18 0 15 0;
#X connect 19 0 26 0;
#X connect 20 0 16 0;
#X connect 22 0 82 0;
#X connect 24 0 22 0;
#X connect 26 0 27 0;
#X connect 27 0 35 1;
#X connect 28 0 29 0;
#X connect 29 0 27 1;
#X connect 30 0 19 0;
#X connect 33 0 34 0;
#X connect 34 0 35 2;
#X connect 35 0 18 1;
#X connect 35 0 21 0;
#X connect 36 0 28 0;
#X connect 37 0 36 0;
#X connect 38 0 40 0;
#X connect 39 0 4 0;
#X connect 39 1 3 0;
#X connect 40 0 43 0;
#X connect 41 0 49 0;
#X connect 42 0 50 0;
#X connect 43 0 41 0;
#X connect 43 1 42 0;
#X connect 44 0 47 0;
#X connect 44 0 48 0;
#X connect 47 0 45 0;
#X connect 48 0 46 0;
#X connect 52 0 48 1;
#X connect 53 0 47 1;
#X connect 54 0 95 0;
#X connect 55 0 94 0;
#X connect 56 0 54 0;
#X connect 57 0 55 0;
#X connect 58 0 57 1;
#X connect 59 0 56 1;
#X connect 60 0 56 0;
#X connect 60 0 57 0;
#X connect 62 0 89 0;
#X connect 63 0 88 0;
#X connect 64 0 62 0;
#X connect 65 0 63 0;
#X connect 66 0 65 1;
#X connect 67 0 64 1;
#X connect 68 0 64 0;
#X connect 68 0 65 0;
#X connect 75 0 73 0;
#X connect 76 0 74 0;
#X connect 77 0 76 1;
#X connect 78 0 75 1;
#X connect 82 0 21 0;
#X connect 83 0 28 0;
#X connect 87 0 75 0;
#X connect 87 0 76 0;
#X connect 90 0 83 0;
#X connect 91 0 30 0;
#X connect 92 0 20 0;
#X connect 93 0 35 0;
#X connect 96 0 30 0;
#X connect 97 0 100 0;
#X connect 98 0 99 0;
#X connect 100 0 101 0;
#X connect 101 0 102 0;
#X connect 102 0 103 0;
#X connect 103 0 107 0;
#X connect 104 0 129 0;
#X connect 105 0 104 0;
#X connect 106 0 121 0;
#X connect 106 1 122 0;
#X connect 106 2 124 0;
#X connect 106 3 125 0;
#X connect 106 4 126 0;
#X connect 106 5 127 0;
#X connect 106 6 128 0;
#X connect 107 0 106 0;
#X connect 108 0 110 0;
#X connect 110 0 115 0;
#X connect 111 0 112 1;
#X connect 112 0 118 0;
#X connect 112 0 111 0;
#X connect 113 0 114 0;
#X connect 114 0 112 1;
#X connect 115 0 112 0;
#X connect 115 1 113 0;
#X connect 117 0 119 0;
#X connect 118 0 117 0;
#X connect 121 0 123 0;
#X connect 122 0 123 0;
#X connect 123 0 104 0;
#X connect 123 1 129 1;
#X connect 124 0 123 0;
#X connect 125 0 123 0;
#X connect 126 0 123 0;
#X connect 127 0 123 0;
#X connect 128 0 123 0;
#X connect 129 0 120 0;
