#N canvas 290 23 1237 962 12;
#X obj 1064 100 r notes;
#X obj 1064 185 tgl 15 0 empty empty bypass 17 7 0 10 -262144 -1 -1
0 1;
#X obj 1064 205 t f f, f 15;
#X obj 1064 256 tgl 15 0 empty empty empty 17 7 0 10 -262144 -1 -1
1 1;
#X obj 1151 252 tgl 15 0 empty empty empty 17 7 0 10 -262144 -1 -1
0 1;
#X obj 1064 228 != 1;
#X obj 1045 353 *~;
#X obj 1135 352 *~;
#X obj 1135 449 *~ 1;
#X msg 1151 271 \$1 10;
#X msg 1064 276 \$1 10;
#X obj 1151 294 line~;
#X obj 1064 300 line~;
#X obj 1143 157 loadbang;
#X obj 1064 128 stripnote;
#X obj 922 301 receive~ toBoard;
#X obj 929 489 send~ fromBoard;
#X obj 323 77 r knob1;
#X obj 936 385 send~ tremSend;
#X obj 894 413 receive~ tremReceive;
#X obj 1064 157 select \$1;
#X msg 977 96 60;
#X obj 977 72 loadbang;
#X text 1001 22 elaborate toggle switch;
#X obj 10 10 receive~ tremSend;
#X obj 12 933 send~ tremReceive;
#X floatatom 340 128 5 0 0 0 - - -;
#X obj 345 158 osc~;
#X obj 345 194 +~ 1;
#X obj 331 219 *~ 0.5;
#X obj 12 906 *~;
#X text 321 49 tempo;
#X obj 439 38 r knob2;
#X text 439 8 pulse shape;
#X floatatom 436 127 5 0 0 0 - - -;
#X obj 233 103 rh_scalelog 0.5 8000;
#X obj 510 392 tabwrite~ pulse;
#X obj 510 337 tgl 15 0 empty empty empty 17 7 0 10 -262144 -1 -1 1
1;
#X text 537 334 graph trem wave;
#X obj 510 308 loadbang;
#N canvas 0 22 450 278 (subpatch) 0;
#X array pulse 100 float 1;
#A 0 1 1 1 1 1 1 1 1 1 1 1 1 1 1 1 1 1 1 1 1 1 1 1 1 1 1 1 1 1 1 1
1 1 1 1 1 1 1 1 1 1 1 1 1 1 1 1 1 1 1 1 1 1 1 1 1 1 1 1 1 1 1 1 1 1
1 1 1 1 1 1 1 1 1 1 1 1 1 1 1 1 1 1 1 1 1 1 1 1 1 1 1 1 1 1 1 1 1 1
1;
#X coords 0 1 99 0 300 150 1 0 0;
#X restore 510 431 graph;
#X obj 435 158 phasor~;
#X obj 435 236 expr~ $v1 > $v2;
#X floatatom 567 166 5 0 0 0 - - -;
#X obj 566 191 / 100;
#X obj 436 103 rh_scalelog 0.5 8000;
#X obj 510 362 metro 70;
#X connect 0 0 14 0;
#X connect 1 0 2 0;
#X connect 2 0 5 0;
#X connect 2 1 4 0;
#X connect 3 0 10 0;
#X connect 4 0 9 0;
#X connect 5 0 3 0;
#X connect 6 0 18 0;
#X connect 7 0 8 0;
#X connect 8 0 16 0;
#X connect 9 0 11 0;
#X connect 10 0 12 0;
#X connect 11 0 7 1;
#X connect 12 0 6 1;
#X connect 13 0 1 0;
#X connect 14 0 20 0;
#X connect 15 0 6 0;
#X connect 15 0 7 0;
#X connect 17 0 35 0;
#X connect 17 0 45 0;
#X connect 19 0 8 0;
#X connect 20 0 1 0;
#X connect 21 0 20 1;
#X connect 22 0 21 0;
#X connect 24 0 30 0;
#X connect 26 0 27 0;
#X connect 27 0 28 0;
#X connect 28 0 29 0;
#X connect 30 0 25 0;
#X connect 34 0 41 0;
#X connect 35 0 26 0;
#X connect 37 0 46 0;
#X connect 39 0 37 0;
#X connect 41 0 42 0;
#X connect 42 0 36 0;
#X connect 42 0 30 1;
#X connect 43 0 44 0;
#X connect 44 0 42 1;
#X connect 45 0 34 0;
#X connect 46 0 36 0;
